<svg width="40" height="40" viewBox="0 0 40 40" fill="none" xmlns="http://www.w3.org/2000/svg">
<path fill-rule="evenodd" clip-rule="evenodd" d="M28.168 0C35.244 0 40 4.552 40 11.33V28.668C40 35.446 35.244 40 28.168 40H11.832C4.756 40 0 35.446 0 28.668V11.33C0 4.552 4.756 0 11.832 0H28.168ZM28.168 3H11.832C6.466 3 3 6.27 3 11.33V28.668C3 33.728 6.466 37 11.832 37H28.168C33.534 37 37 33.728 37 28.668V11.33C37 6.27 33.534 3 28.168 3ZM21.7026 11.442L29.2171 18.9245C29.2733 18.9791 29.3251 19.038 29.3722 19.1008L29.2306 18.938C29.3015 19.0079 29.3645 19.0842 29.4191 19.1656C29.443 19.2025 29.4662 19.2406 29.4877 19.2798C29.5054 19.3105 29.5215 19.3424 29.5364 19.3749C29.55 19.4062 29.5631 19.4376 29.5752 19.4695C29.5876 19.5006 29.5984 19.5323 29.6081 19.5644C29.6418 19.6776 29.6631 19.7965 29.6697 19.9193C29.6719 19.9466 29.6726 19.9732 29.6726 20L29.666 20.078L29.6581 20.2035C29.6473 20.283 29.6302 20.3606 29.6075 20.4357C29.5984 20.4677 29.5876 20.4994 29.5757 20.5308C29.5631 20.5624 29.55 20.5938 29.5358 20.6246C29.5215 20.6576 29.5054 20.6895 29.4882 20.7209C29.4662 20.7594 29.443 20.7975 29.4182 20.8345C29.4044 20.8563 29.3891 20.8779 29.3731 20.8991C29.3294 20.9563 29.2826 21.0102 29.2323 21.0605L29.2306 21.062L21.7026 28.558C21.4106 28.85 21.0266 28.996 20.6446 28.996C20.2606 28.996 19.8746 28.85 19.5826 28.554C18.9986 27.966 19.0006 27.018 19.5866 26.434L24.54 21.5H11.8278C10.9998 21.5 10.3278 20.828 10.3278 20C10.3278 19.172 10.9998 18.5 11.8278 18.5H24.54L19.5866 13.566C19.0006 12.982 18.9986 12.034 19.5826 11.446C20.1666 10.858 21.1146 10.858 21.7026 11.442Z" fill="black"/>
</svg>
